# xmcd
#
# Track frame offsets:
#	150
#	15000
#	35756
#	59124
#	78974
#	96245
#	111980
#	124878
#	140416
#	158550
#	177975
#	199274
#
# Disc length: 2873 seconds
#
# Revision: 0
# Processed by: cddbd v1.5.2PL0 Copyright (c) Steve Scherf et al.
# Submitted via: EZCDAudioConverter 5.5.0.1
#
DISCID=a10b370c
DTITLE=Various Artist - Románticos Vol 6 (N°1194)
DYEAR=2005
DGENRE=Balada
TTITLE0=ALEJADRO LERNER - AMARTE ASI
TTITLE1=ALBERTO CORTEZ - EN UN RINCON DEL ALMA
TTITLE2=ISMAEL SERRANO - LA EXTRAÑA PAREJA
TTITLE3=MONICA POSSE - EL JARDIN PROHIBIDO
TTITLE4=SANDRA MIHANOVICH - ES COMO
TTITLE5=VICTOR HEREDIA - QUE RAPIDAS SE VAN LAS HS.DEL AMOR
TTITLE6=NINO BRAVO - TE QUIERO TE QUIERO
TTITLE7=CRIS MANZANO - SI O NO 
TTITLE8=JOSE FELICIANO - ME HAS ECHADO AL OLVIDO
TTITLE9=DEMIS ROUSSOS - MORIR AL LADO DE MI AMOR
TTITLE10=EDDIE SIERRA - Y AMAMOS TANTO 
TTITLE11=SERGIO DENIS - MANDY
EXTD=
EXTT0=
EXTT1=
EXTT2=
EXTT3=
EXTT4=
EXTT5=
EXTT6=
EXTT7=
EXTT8=
EXTT9=
EXTT10=
EXTT11=
PLAYORDER=
